<svg width="27" height="27" viewBox="0 0 27 27" fill="none" xmlns="http://www.w3.org/2000/svg">
<path d="M12.1048 21.0092C13.8654 21.0092 15.141 20.4796 15.9318 19.4202C16.7375 18.346 17.1702 16.4735 17.2299 13.8028V13.5342C17.2299 10.8486 16.8121 8.92393 15.9766 7.76016C15.156 6.59639 13.8281 6.01451 11.9929 6.01451C8.78507 6.01451 7.18116 8.55093 7.18116 13.6238C7.18116 16.0856 7.57654 17.9357 8.3673 19.174C9.17299 20.3975 10.4188 21.0092 12.1048 21.0092ZM10.0234 26.4476C6.96481 26.4476 4.56268 25.3137 2.81702 23.0458C1.08629 20.778 0.220923 17.6224 0.220923 13.579C0.220923 9.43121 1.12359 6.22339 2.92892 3.95553C4.74918 1.68768 7.2856 0.553747 10.5382 0.553747C12.2988 0.553747 13.746 0.86707 14.8799 1.49371C16.0288 2.12036 16.9762 3.06033 17.7222 4.31362H18.0579C18.416 2.91113 18.9158 1.79958 19.5574 0.978971H25.1972C24.7197 2.42622 24.3318 4.08981 24.0334 5.96975C23.7499 7.83476 23.6082 9.54312 23.6082 11.0948V18.0774C23.6082 19.838 24.2348 20.7183 25.4881 20.7183C25.9656 20.7183 26.4057 20.6437 26.8086 20.4945V25.8657C26.5698 26.0149 26.1073 26.1492 25.421 26.2686C24.7496 26.3879 24.1901 26.4476 23.7425 26.4476C22.0714 26.4476 20.7958 26.1641 19.9155 25.5972C19.0352 25.0153 18.3414 24.0529 17.8341 22.7101H17.3641C15.7229 25.2018 13.276 26.4476 10.0234 26.4476Z" fill="#BBF41C"/>
</svg>
